<svg xmlns="http://www.w3.org/2000/svg" width="16" height="16" viewBox="0 0 16 16">
    <defs id="colors">
        <linearGradient id="menuIconDisabled">
            <stop offset="0" stop-color="#6E6E6E"/>
        </linearGradient>
    </defs>
    <rect id="frame" width="16" height="16" fill="none"/>
    <g fill="url(#menuIconDisabled)" fill-rule="evenodd">
        <path fill-rule="nonzero"
              d="M15 7h-3.5c0-1.932-1.568-3.5-3.5-3.5A3.501 3.501 0 0 0 4.5 7c0 1.932 1.568 3.5 3.5 3.5V12c-3.182 0-5.9-2.073-7-5 1.1-2.927 3.818-5 7-5s5.9 2.073 7 5zm-5 0H8v2c-1.107 0-2-.893-2-2s.893-2 2-2 2 .893 2 2z"/>
        <path d="M9 8h7v8H9V8zm1.5 4v1h4v-1h-4zm0-2v1h4v-1h-4z"/>
    </g>
</svg>
