<svg xmlns="http://www.w3.org/2000/svg" width="16" height="16" viewBox="0 0 16 16">
    <defs id="colors">
        <linearGradient id="menuIconEnabled">
            <stop offset="0" stop-color="#AFB1B3"/>
        </linearGradient>
    </defs>
    <rect id="frame" width="16" height="16" fill="none"/>
    <g fill="url(#menuIconEnabled)" fill-rule="evenodd">
        <path d="M4.988 12.341C3.172 11.507 1.73 9.941 1 8c1.1-2.927 3.818-5 7-5s5.9 2.073 7 5a8.015 8.015 0 0 1-.904 1.73L13 9h-1.645A3.501 3.501 0 0 0 8 4.5a3.501 3.501 0 0 0-1.347 6.731l-1.665 1.11zM9.48 9.346l-.806.538A2.003 2.003 0 0 1 6 8c0-1.107.893-2 2-2s2 .893 2 2c0 .52-.197.991-.52 1.346z"/>
        <path d="M7 13.6v-1.2l4-2.4v1.2L8.067 13 11 14.8V16z"/>
        <path d="M12 14.8l2.933-1.8L12 11.2V10l4 2.4v1.2L12 16z"/>
    </g>
</svg>
