<svg xmlns="http://www.w3.org/2000/svg" width="16" height="16" viewBox="0 0 16 16">
    <defs id="colors">
        <linearGradient id="menuIconDisabled">
            <stop offset="0" stop-color="#6E6E6E"/>
        </linearGradient>
    </defs>
    <rect id="frame" width="16" height="16" fill="none"/>
    <g fill="url(#menuIconDisabled)" fill-rule="evenodd">
        <path d="M7 1L3 5h4z"/>
        <path d="M11.646 13.849v-1.426c0-.499.014-.756.253-1.326.159-.38.21-.594.153-.643L9.619 8.423l.609-.765c.735-.923 1.69-1.45 2.772-1.595V1H8v5H3v9h8.429c.005-.234.045-.459.124-.668.066-.173.093-.483.093-.483zm2.276.532c.17.184.256.405.256.665a.964.964 0 0 1-.256.678.821.821 0 0 1-.626.276.803.803 0 0 1-.621-.276.973.973 0 0 1-.25-.678.94.94 0 0 1 .256-.665.804.804 0 0 1 .615-.276c.247 0 .455.09.626.276"/>
        <path d="M14.879 7.277c.367.184.647.43.84.74.194.31.29.64.29.99 0 .328-.051.606-.155.836-.105.23-.23.419-.377.564a6.305 6.305 0 0 1-.592.509 7.62 7.62 0 0 0-.534.452 1.485 1.485 0 0 0-.463 1.117v.364h-1.242v-.426c0-.36.055-.668.168-.923.113-.255.248-.464.406-.628.159-.163.36-.345.609-.545.286-.235.494-.433.627-.596a.962.962 0 0 0 .197-.621c0-.302-.112-.54-.336-.71-.225-.171-.515-.258-.871-.258-.278 0-.554.072-.83.214-.274.142-.52.36-.736.652l-.87-.727C11.69 7.427 12.545 7 13.574 7c.502 0 .938.092 1.305.277"/>
    </g>
</svg>
