<svg version="1.1" id="Layer_1" xmlns="http://www.w3.org/2000/svg" width="16" height="16" viewBox="0 0 1000 1000">
    <defs id="colors">
        <linearGradient id="textIconEnabled">
            <stop offset="0" stop-color="#FFFFFF"/>
        </linearGradient>
        <linearGradient id="textIconDisabled">
            <stop offset="0" stop-color="#000000"/>
        </linearGradient>
    </defs>
    <g fill="url(#textIconEnabled)">
        <path d="M69,884.3c281.7,0,563.4,0,845,0c15.3,0,30.6,0,46,0c-0.2,0.3,0.5,1-0.5,1c-1.3,0-2.7,0-4,0
		c-294,0-588,0-882-0.1C72,885.2,70.1,886.4,69,884.3z"/>
        <path d="M854.7,498.7c-6.8-1.3-9.9-6.2-11.7-12.2c-3.3-10.9-5.2-22.3-8.9-33.1c-4.3-12.5-8.9-24.9-15.1-36.7
		c-0.8-1.6-2-2.9-3.1-4.4c0.8-2-0.7-3.5-1.4-5.1c-5.4-11.7-12.6-22.4-20.6-32.2c-17.9-22.2-38.6-41.2-65.1-53.1
		c-25.5-11.4-51.7-16.2-79.2-10.7c-31.2,6.2-57,22-76.4,47.2c-18.1,23.5-19.8,51.2-17.7,79.4c1.9,25.8,9.3,50.6,15.5,75.6
		c0.6,2.2,1.6,3.9,3.2,5.5C628.8,573,682.4,628,737.5,681.5c35.5,34.5,70.1,69.9,105.1,104.8c1.9,1.9,2.1,2.9,0.1,5
		c-17.1,17.2-34.1,34.5-51,51.9c-2.5,2.5-3.8,3-6.4,0.1c-8.5-9.1-17.4-17.8-25.9-26.8c-11.6-12.3-24.3-23.6-36.3-35.6
		C681,739,639.1,697,597.2,655.1c-1.2-1.2-2.2-2.9-4.4-3.6c-0.2,1.9-0.5,3.7-0.7,5.5c-3.1,26.6-10.7,51.8-25.4,74.4
		c-29.3,45.2-71.4,73.8-121.8,90.7c-20.5,6.8-42,9.3-63.5,8.9c-24.9-0.4-49.6-2.8-73.2-12c-7.2-2.8-14.9-4.6-22.2-7.4
		c-55.7-20.8-101-56.3-140.1-100.4c-10.6-12-19.7-25.1-29-38c0,0,0.1,0.1,0.1,0.1c0.1-0.7-0.4-1-1-1.1
		C105.9,654,95.3,636,87.4,616.7c-6.6-16.2-12-32.7-15-50c-2.3-13.3,1-24.4,11.6-33c14-11.3,28.8-21.6,46.2-27
		c13.5-4.2,19.6-1,25.3,11.9c0.4,0.9,0.8,1.8,1.3,2.6c0.8,3.2,1.6,6.4,2.3,9.7c5.2,24.1,12.2,47.5,22.1,70.2
		c22.1,50.8,58,88.9,106.4,115.5c1.7,0.9,3.3,2.4,5.5,1.8c0,0,0,0,0,0c0.4,1.1,1.2,1.1,2.1,0.8c9.6,5.9,20.3,8.9,31.1,11.6
		c52.6,13.6,109.5-5.9,141-48c13-17.4,18-37.2,18.8-58.4c1-26.8-5.1-52.5-12.4-78c-0.3-1.1-1.1-2-1.7-3c-0.9-7.2-1.2-14.6-6.6-20.2
		c-50.6-51.3-102.5-101.4-152.4-153.4c-8.5-8.9-17.7-17-26.4-25.6c-36.7-36.3-73.1-72.9-109.6-109.4c-1.3-1.3-2.7-2.5-4-3.7
		c-5.1-5.2-10.1-10.6-15.4-15.6c-2.3-2.2-1.9-3.3,0.1-5.3c17.2-17.1,34.4-34.2,51.5-51.4c2-2,3.1-1.9,5,0.1
		c5.1,5.2,10.4,10.3,15.6,15.4c1.2,1.3,2.4,2.7,3.7,4c21.3,20.8,41.9,42.1,63.4,62.7c24.6,23.6,48.4,48.1,72.5,72.3
		c20.2,20.2,40.6,40.3,60.6,60.8c6.2,6.4,12.2,12.9,19,19.8c0.5-4.9,1-8.9,1.5-13c4.3-25.1,11.9-49.2,26.6-70.2
		c35.4-50.6,83.2-81.8,144.6-91.2c36.7-5.6,72.5-1.2,107.7,10.6c21.1,7.1,41,16.3,59.4,28.7c1.7,1.2,4.1,0.9,5.4,2.8
		c0,1.3,0.9,1.2,1.8,1.1c0,0,0,0,0,0c0.3,1.3,1.5,1.6,2.4,2.3c43.1,31,78.1,69.1,102,116.8c8.6,17.1,16.2,34.6,20.3,53.4
		c3.1,14.2,0,26.2-11.1,36.1c-10.4,9.3-21.9,16.8-34.2,23.1C868.9,497.3,862,499.2,854.7,498.7z"/>
    </g>
    <g fill="url(#textIconDisabled)">
        <path d="M117,673.2c9.3,13,18.3,26.1,29,38c39.1,44,84.4,79.5,140.1,100.4c7.3,2.7,14.9,4.5,22.2,7.4
		c23.6,9.2,48.3,11.6,73.2,12c21.5,0.4,43-2.1,63.5-8.9c50.4-16.9,92.5-45.4,121.8-90.7c14.6-22.6,22.3-47.7,25.4-74.4
		c0.2-1.8,0.4-3.6,0.7-5.5c2.2,0.7,3.1,2.3,4.4,3.6C639.1,697,681,739,723,780.9c12,12,24.6,23.3,36.3,35.6
		c8.6,9,17.4,17.7,25.9,26.8c2.6,2.8,4,2.4,6.4-0.1c16.9-17.4,33.9-34.7,51-51.9c2-2,1.8-3.1-0.1-5
		c-35.1-34.9-69.6-70.4-105.1-104.8C682.4,628,628.8,573,574.2,519c-1.6-1.6-2.7-3.3-3.2-5.5c-6.3-25-13.6-49.8-15.5-75.6
		c-2.1-28.2-0.4-55.9,17.7-79.4c19.4-25.2,45.2-40.9,76.4-47.2c27.6-5.5,53.8-0.7,79.2,10.7c26.6,11.9,47.2,30.9,65.1,53.1
		c8,9.9,15.2,20.6,20.6,32.2c0.7,1.6,2.2,3,1.4,5.1c-5.5-6-10.8-12.1-16.4-18c-16.8-17.8-34.9-33.7-58.5-42.1
		c-44.7-15.9-85.4-8.9-120.9,22.7c-19.8,17.6-30,40-30.3,67c-0.3,27.8,5.8,54.5,12.4,81.2c2.2,8.9,6.2,15.8,12.7,22.3
		c37.9,37.5,75.1,75.7,113.3,112.9c49,47.6,96.7,96.5,145.2,144.5c8.5,8.4,8.4,14.7-0.2,23.3c-16.6,16.6-33.3,33.2-49.9,49.8
		c-6.8,6.8-13.1,6.9-19.8,0.1c-17.7-17.6-35.4-35.3-53-53C709.6,782,668.6,741,627.7,700.1c-0.7-0.7-1.5-1.2-2.6-2.1
		c-1.8,7.1-3.4,13.9-5.3,20.6c-11.5,39.8-36.3,70-67.4,96.3c-33.3,28.1-71.9,43-114.3,49.2c-38.4,5.5-76,0.5-112.8-11.1
		c-24-7.6-47.5-16.6-68.8-30.3c-57.6-37.1-105.4-83.7-137.9-144.7C117.8,676.4,116.4,675.1,117,673.2z"/>
        <path d="M854.7,498.7c7.3,0.5,14.2-1.4,20.7-4.7c12.3-6.3,23.9-13.7,34.2-23.1c11.1-10,14.1-22,11.1-36.1
		c-4.1-18.8-11.7-36.2-20.3-53.4c-23.9-47.8-58.9-85.9-102-116.8c-0.9-0.6-2.2-1-2.4-2.3c2.3-1.1,3.7,0.8,5.3,1.7
		c48.1,27,87.6,63.2,117,109.9c15.8,25.1,29.9,51.1,36.3,80.5c1.5,6.8,3,13.6,2.1,20.7c-1.5,11.6-6.7,21.1-15.6,28.7
		c-14.9,12.7-30.6,24.2-50.1,28.9c-16.7,4-28-2.5-32.9-18.9C856.7,508.9,855.8,503.8,854.7,498.7z"/>
        <path d="M172.9,231c1.3,1.2,2.7,2.4,4,3.7c36.5,36.5,72.9,73.2,109.6,109.4c8.7,8.6,17.9,16.8,26.4,25.6
		c49.9,52,101.7,102.1,152.4,153.4c5.5,5.6,5.7,13,6.6,20.2c-2-0.4-3-2.1-4.2-3.3c-53-53-106-106-159-159
		c-44.3-44.3-88.7-88.7-133-133C169.3,241.6,168.6,237.3,172.9,231z"/>
        <path d="M293,718.4c-2.2,0.6-3.8-0.9-5.5-1.8c-48.4-26.6-84.2-64.7-106.4-115.5c-9.8-22.6-16.8-46.1-22.1-70.2
		c-0.7-3.2-1.5-6.5-2.3-9.7c14.1-3.7,25.2,1.7,31.7,15.5c4.7,9.9,5.8,20.8,8.5,31.2c9.1,34.8,21.3,68.3,43,97.4
		c14.9,20.1,32.4,37.8,53.1,52.2C293.2,717.6,293,718.1,293,718.4z"/>
        <path d="M450.4,380.7c-0.5,4.1-0.9,8.1-1.5,13c-6.8-6.9-12.8-13.4-19-19.8c-20-20.5-40.4-40.6-60.6-60.8
		c-24.1-24.1-47.8-48.7-72.5-72.3c-21.5-20.6-42.2-41.9-63.4-62.7c-1.3-1.3-2.5-2.7-3.7-4c6.1-4,10.7-3.5,16.4,2.2
		c14.3,14.2,28.3,28.7,42.8,42.7c52,49.9,102.1,101.7,153.3,152.5C445.1,374.3,447.7,377.6,450.4,380.7z"/>
        <path d="M795.9,262.4c-0.9,0.1-1.8,0.2-1.8-1.1C794.8,261.6,796.2,260.6,795.9,262.4z"/>
        <path d="M295,719.2c-0.9,0.3-1.7,0.2-2.1-0.8C294.1,717.5,294.6,718.4,295,719.2z"/>
        <path d="M116.1,672.2c0.6,0.1,1.1,0.4,1,1.1C116.1,673.5,116,672.9,116.1,672.2z"/>
    </g>
</svg>
